%TF.GenerationSoftware,KiCad,Pcbnew,8.0.5*%
%TF.CreationDate,2024-11-11T20:50:25-03:00*%
%TF.ProjectId,Dimmer  PHD Equipamentos,44696d6d-6572-4202-9050-484420457175,rev?*%
%TF.SameCoordinates,Original*%
%TF.FileFunction,Copper,L2,Bot*%
%TF.FilePolarity,Positive*%
%FSLAX46Y46*%
G04 Gerber Fmt 4.6, Leading zero omitted, Abs format (unit mm)*
G04 Created by KiCad (PCBNEW 8.0.5) date 2024-11-11 20:50:25*
%MOMM*%
%LPD*%
G01*
G04 APERTURE LIST*
%TA.AperFunction,NonConductor*%
%ADD10C,4.600000*%
%TD*%
%TA.AperFunction,ComponentPad*%
%ADD11C,2.500000*%
%TD*%
%TA.AperFunction,ComponentPad*%
%ADD12C,2.000000*%
%TD*%
%TA.AperFunction,ComponentPad*%
%ADD13C,3.000000*%
%TD*%
%TA.AperFunction,ComponentPad*%
%ADD14R,3.000000X2.600000*%
%TD*%
%TA.AperFunction,ComponentPad*%
%ADD15R,2.600000X2.600000*%
%TD*%
%TA.AperFunction,ComponentPad*%
%ADD16R,2.000000X1.600000*%
%TD*%
%TA.AperFunction,ComponentPad*%
%ADD17O,2.000000X1.600000*%
%TD*%
%TA.AperFunction,ComponentPad*%
%ADD18R,2.000000X1.905000*%
%TD*%
%TA.AperFunction,ComponentPad*%
%ADD19O,2.000000X1.905000*%
%TD*%
%TA.AperFunction,ViaPad*%
%ADD20C,0.800000*%
%TD*%
%TA.AperFunction,Conductor*%
%ADD21C,1.000000*%
%TD*%
%ADD22C,0.350000*%
G04 APERTURE END LIST*
D10*
X151300000Y-88100000D02*
G75*
G02*
X146700000Y-88100000I-2300000J0D01*
G01*
X146700000Y-88100000D02*
G75*
G02*
X151300000Y-88100000I2300000J0D01*
G01*
X151300000Y-111500000D02*
G75*
G02*
X146700000Y-111500000I-2300000J0D01*
G01*
X146700000Y-111500000D02*
G75*
G02*
X151300000Y-111500000I2300000J0D01*
G01*
D11*
%TO.P,C1,1*%
%TO.N,Net-(D1-K)*%
X133000000Y-108000000D03*
D12*
%TO.P,C1,2*%
%TO.N,Net-(J1-Pin_3)*%
X143000000Y-108000000D03*
%TD*%
D13*
%TO.P,R3,1*%
%TO.N,Net-(J1-Pin_1)*%
X161380000Y-84000000D03*
%TO.P,R3,2*%
%TO.N,Net-(CSP1-Pad2)*%
X176620000Y-84000000D03*
%TD*%
D11*
%TO.P,VARISTOR1,1*%
%TO.N,Net-(J1-Pin_3)*%
X163800000Y-102750000D03*
%TO.P,VARISTOR1,2*%
%TO.N,Net-(J1-Pin_1)*%
X165200000Y-95250000D03*
%TD*%
%TO.P,MINIMO,1,1*%
%TO.N,Net-(J1-Pin_1)*%
X126500000Y-83000000D03*
%TO.P,MINIMO,2,2*%
%TO.N,Net-(MINIMO1-Pad2)*%
X121420000Y-85540000D03*
%TO.P,MINIMO,3,3*%
%TO.N,unconnected-(MINIMO1-Pad3)*%
X126500000Y-88080000D03*
%TD*%
D14*
%TO.P,J1,1,Pin_1*%
%TO.N,Net-(J1-Pin_1)*%
X174000000Y-93000000D03*
%TO.P,J1,2,Pin_2*%
%TO.N,unconnected-(J1-Pin_2-Pad2)*%
X174000000Y-98000000D03*
D15*
%TO.P,J1,3,Pin_3*%
%TO.N,Net-(J1-Pin_3)*%
X174000000Y-103000000D03*
%TD*%
D11*
%TO.P,MAXIMO,1,1*%
%TO.N,Net-(J1-Pin_1)*%
X126655000Y-93460000D03*
%TO.P,MAXIMO,2,2*%
%TO.N,Net-(J2-Pin_1)*%
X121575000Y-96000000D03*
%TO.P,MAXIMO,3,3*%
%TO.N,unconnected-(MAXIMO1-Pad3)*%
X126655000Y-98540000D03*
%TD*%
%TO.P,C2,1*%
%TO.N,Net-(D1-K)*%
X133000000Y-114500000D03*
D12*
%TO.P,C2,2*%
%TO.N,Net-(J1-Pin_3)*%
X143000000Y-114500000D03*
%TD*%
D13*
%TO.P,CSP1,1*%
%TO.N,Net-(J1-Pin_3)*%
X158500000Y-111500000D03*
%TO.P,CSP1,2*%
%TO.N,Net-(CSP1-Pad2)*%
X173500000Y-111500000D03*
%TD*%
D14*
%TO.P,J2,1,Pin_1*%
%TO.N,Net-(J2-Pin_1)*%
X123500000Y-105000000D03*
%TO.P,J2,2,Pin_2*%
%TO.N,Net-(D1-K)*%
X123500000Y-110000000D03*
%TO.P,J2,3,Pin_3*%
X123500000Y-115000000D03*
%TD*%
D16*
%TO.P,D1,1,K*%
%TO.N,Net-(D1-K)*%
X159190000Y-90250000D03*
D17*
%TO.P,D1,2,A*%
%TO.N,Net-(D1-A)*%
X166810000Y-90250000D03*
%TD*%
D18*
%TO.P,Q1,1,A1*%
%TO.N,Net-(J1-Pin_3)*%
X154250000Y-101580000D03*
D19*
%TO.P,Q1,2,A2*%
%TO.N,Net-(J1-Pin_1)*%
X154250000Y-99040000D03*
%TO.P,Q1,3,G*%
%TO.N,Net-(D1-A)*%
X154250000Y-96500000D03*
%TD*%
D20*
%TO.N,Net-(D2--)*%
X137300000Y-101800000D03*
X139700000Y-98100000D03*
X137200000Y-98100000D03*
X137300000Y-94700000D03*
X139700000Y-94600000D03*
X139700000Y-101700000D03*
%TO.N,Net-(D2-+)*%
X137700000Y-89900000D03*
X137600000Y-85800000D03*
X140300000Y-85800000D03*
X140200000Y-89900000D03*
X140300000Y-82000000D03*
X137600000Y-82000000D03*
%TO.N,Net-(J1-Pin_1)*%
X133900000Y-89500000D03*
X131600000Y-86100000D03*
X133700000Y-101800000D03*
X133800000Y-94600000D03*
X133900000Y-86100000D03*
X131600000Y-94100000D03*
X131600000Y-97800000D03*
X133800000Y-98200000D03*
X131500000Y-89700000D03*
X131500000Y-83000000D03*
X131700000Y-100000000D03*
X133900000Y-82900000D03*
%TD*%
D21*
%TO.N,Net-(J1-Pin_1)*%
X135900000Y-105700000D02*
X140800000Y-105700000D01*
X140800000Y-105700000D02*
X147460000Y-99040000D01*
X147460000Y-99040000D02*
X154250000Y-99040000D01*
X131700000Y-101500000D02*
X135900000Y-105700000D01*
X131700000Y-100000000D02*
X131700000Y-101500000D01*
%TD*%
%TA.AperFunction,Conductor*%
%TO.N,Net-(J1-Pin_3)*%
G36*
X155415677Y-100619685D02*
G01*
X155436319Y-100636319D01*
X155700000Y-100900000D01*
X174849017Y-100999734D01*
X174915952Y-101019767D01*
X174936051Y-101036051D01*
X175765640Y-101865640D01*
X175799125Y-101926963D01*
X175801867Y-101948555D01*
X175897766Y-104441936D01*
X175880673Y-104509683D01*
X175856810Y-104538870D01*
X174935369Y-105368168D01*
X174872370Y-105398384D01*
X174852417Y-105400000D01*
X169000000Y-105400000D01*
X161036222Y-113264231D01*
X160974690Y-113297330D01*
X160949094Y-113300000D01*
X157045422Y-113300000D01*
X156978383Y-113280315D01*
X156965325Y-113270660D01*
X156957727Y-113264231D01*
X156529102Y-112901548D01*
X155743903Y-112237148D01*
X155705441Y-112178817D01*
X155700000Y-112142488D01*
X155700000Y-107300000D01*
X152248260Y-104637229D01*
X152207203Y-104580695D01*
X152200000Y-104539048D01*
X152200000Y-100876636D01*
X152219685Y-100809597D01*
X152268546Y-100765727D01*
X152573818Y-100613091D01*
X152629272Y-100600000D01*
X155348638Y-100600000D01*
X155415677Y-100619685D01*
G37*
%TD.AperFunction*%
%TD*%
%TA.AperFunction,Conductor*%
%TO.N,Net-(J1-Pin_1)*%
G36*
X175215677Y-90419685D02*
G01*
X175236319Y-90436319D01*
X175363681Y-90563681D01*
X175397166Y-90625004D01*
X175400000Y-90651362D01*
X175400000Y-94148638D01*
X175380315Y-94215677D01*
X175363681Y-94236319D01*
X174536319Y-95063681D01*
X174474996Y-95097166D01*
X174448638Y-95100000D01*
X172199999Y-95100000D01*
X167336319Y-99963681D01*
X167274996Y-99997166D01*
X167248638Y-100000000D01*
X154900000Y-100000000D01*
X155000000Y-98100000D01*
X155600000Y-98100000D01*
X160563681Y-93136319D01*
X160625004Y-93102834D01*
X160651362Y-93100000D01*
X169499999Y-93100000D01*
X169500000Y-93100000D01*
X172063419Y-90437988D01*
X172124100Y-90403353D01*
X172152739Y-90400000D01*
X175148638Y-90400000D01*
X175215677Y-90419685D01*
G37*
%TD.AperFunction*%
%TD*%
%TA.AperFunction,Conductor*%
%TO.N,Net-(J1-Pin_1)*%
G36*
X154900000Y-100000000D02*
G01*
X146858523Y-100000000D01*
X146791484Y-99980315D01*
X146745729Y-99927511D01*
X146735785Y-99858353D01*
X146764810Y-99794797D01*
X146781913Y-99778497D01*
X147867670Y-98925402D01*
X147932546Y-98899461D01*
X147941099Y-98898946D01*
X151800000Y-98800000D01*
X151999999Y-98700000D01*
X152199997Y-98600002D01*
X152199998Y-98600001D01*
X152200000Y-98600000D01*
X152663681Y-98136319D01*
X152725004Y-98102834D01*
X152751362Y-98100000D01*
X155000000Y-98100000D01*
X154900000Y-100000000D01*
G37*
%TD.AperFunction*%
%TD*%
%TA.AperFunction,Conductor*%
%TO.N,Net-(D2-+)*%
G36*
X142016177Y-80520185D02*
G01*
X142036819Y-80536819D01*
X142463681Y-80963681D01*
X142497166Y-81025004D01*
X142500000Y-81051362D01*
X142500000Y-90948638D01*
X142480315Y-91015677D01*
X142463681Y-91036319D01*
X142036319Y-91463681D01*
X141974996Y-91497166D01*
X141948638Y-91500000D01*
X136551362Y-91500000D01*
X136484323Y-91480315D01*
X136463681Y-91463681D01*
X136036319Y-91036319D01*
X136002834Y-90974996D01*
X136000000Y-90948638D01*
X136000000Y-81051362D01*
X136019685Y-80984323D01*
X136036319Y-80963681D01*
X136463181Y-80536819D01*
X136524504Y-80503334D01*
X136550862Y-80500500D01*
X141949138Y-80500500D01*
X142016177Y-80520185D01*
G37*
%TD.AperFunction*%
%TD*%
%TA.AperFunction,Conductor*%
%TO.N,Net-(J1-Pin_1)*%
G36*
X134516177Y-80520185D02*
G01*
X134536819Y-80536819D01*
X134963681Y-80963681D01*
X134997166Y-81025004D01*
X135000000Y-81051362D01*
X135000000Y-104313011D01*
X134980315Y-104380050D01*
X134927511Y-104425805D01*
X134858353Y-104435749D01*
X134794797Y-104406724D01*
X134791015Y-104403308D01*
X133300000Y-103000000D01*
X130051362Y-103000000D01*
X129984323Y-102980315D01*
X129963681Y-102963681D01*
X129536319Y-102536319D01*
X129502834Y-102474996D01*
X129500000Y-102448638D01*
X129500000Y-81051362D01*
X129519685Y-80984323D01*
X129536319Y-80963681D01*
X129963181Y-80536819D01*
X130024504Y-80503334D01*
X130050862Y-80500500D01*
X134449138Y-80500500D01*
X134516177Y-80520185D01*
G37*
%TD.AperFunction*%
%TD*%
%TA.AperFunction,Conductor*%
%TO.N,Net-(D2--)*%
G36*
X141215677Y-93019685D02*
G01*
X141236319Y-93036319D01*
X141963681Y-93763681D01*
X141997166Y-93825004D01*
X142000000Y-93851362D01*
X142000000Y-102048638D01*
X141980315Y-102115677D01*
X141963681Y-102136319D01*
X140636319Y-103463681D01*
X140574996Y-103497166D01*
X140548638Y-103500000D01*
X136551362Y-103500000D01*
X136484323Y-103480315D01*
X136463681Y-103463681D01*
X136036319Y-103036319D01*
X136002834Y-102974996D01*
X136000000Y-102948638D01*
X136000000Y-93551362D01*
X136019685Y-93484323D01*
X136036319Y-93463681D01*
X136463681Y-93036319D01*
X136525004Y-93002834D01*
X136551362Y-93000000D01*
X141148638Y-93000000D01*
X141215677Y-93019685D01*
G37*
%TD.AperFunction*%
%TD*%
D22*
X137300000Y-101800000D03*
X139700000Y-98100000D03*
X137200000Y-98100000D03*
X137300000Y-94700000D03*
X139700000Y-94600000D03*
X139700000Y-101700000D03*
X137700000Y-89900000D03*
X137600000Y-85800000D03*
X140300000Y-85800000D03*
X140200000Y-89900000D03*
X140300000Y-82000000D03*
X137600000Y-82000000D03*
X133900000Y-89500000D03*
X131600000Y-86100000D03*
X133700000Y-101800000D03*
X133800000Y-94600000D03*
X133900000Y-86100000D03*
X131600000Y-94100000D03*
X131600000Y-97800000D03*
X133800000Y-98200000D03*
X131500000Y-89700000D03*
X131500000Y-83000000D03*
X131700000Y-100000000D03*
X133900000Y-82900000D03*
X133000000Y-108000000D03*
X143000000Y-108000000D03*
X161380000Y-84000000D03*
X176620000Y-84000000D03*
X163800000Y-102750000D03*
X165200000Y-95250000D03*
X126500000Y-83000000D03*
X121420000Y-85540000D03*
X126500000Y-88080000D03*
X174000000Y-93000000D03*
X174000000Y-98000000D03*
X174000000Y-103000000D03*
X126655000Y-93460000D03*
X121575000Y-96000000D03*
X126655000Y-98540000D03*
X149000000Y-111500000D03*
X133000000Y-114500000D03*
X143000000Y-114500000D03*
X158500000Y-111500000D03*
X173500000Y-111500000D03*
X123500000Y-105000000D03*
X123500000Y-110000000D03*
X123500000Y-115000000D03*
X159190000Y-90250000D03*
X166810000Y-90250000D03*
X149000000Y-88000000D03*
X154250000Y-101580000D03*
X154250000Y-99040000D03*
X154250000Y-96500000D03*
M02*
