M48
METRIC,TZ
T1C0.400
T2C0.800
T3C1.100
T4C1.200
T5C1.300
T6C1.400
T7C4.000
%
G90
G05
T1
X131500Y-83000
X131500Y-89700
X131600Y-86100
X131600Y-94100
X131600Y-97800
X131700Y-100000
X133700Y-101800
X133800Y-94600
X133800Y-98200
X133900Y-82900
X133900Y-86100
X133900Y-89500
X137200Y-98100
X137300Y-94700
X137300Y-101800
X137600Y-82000
X137600Y-85800
X137700Y-89900
X139700Y-94600
X139700Y-98100
X139700Y-101700
X140200Y-89900
X140300Y-82000
X140300Y-85800
T2
X121420Y-85540
X121575Y-96000
X126500Y-83000
X126500Y-88080
X126655Y-93460
X126655Y-98540
X133000Y-108000
X133000Y-114500
X143000Y-108000
X143000Y-114500
X159190Y-90250
X163800Y-102750
X165200Y-95250
X166810Y-90250
T3
X154250Y-96500
X154250Y-99040
X154250Y-101580
T4
X158500Y-111500
X173500Y-111500
T5
X123500Y-105000
X123500Y-110000
X123500Y-115000
X174000Y-93000
X174000Y-98000
X174000Y-103000
T6
X161380Y-84000
X176620Y-84000
T7
X149000Y-88000
X149000Y-111500
M30
