%TF.GenerationSoftware,KiCad,Pcbnew,8.0.5*%
%TF.CreationDate,2024-11-11T20:50:26-03:00*%
%TF.ProjectId,Dimmer  PHD Equipamentos,44696d6d-6572-4202-9050-484420457175,rev?*%
%TF.SameCoordinates,Original*%
%TF.FileFunction,Copper,L1,Top*%
%TF.FilePolarity,Positive*%
%FSLAX46Y46*%
G04 Gerber Fmt 4.6, Leading zero omitted, Abs format (unit mm)*
G04 Created by KiCad (PCBNEW 8.0.5) date 2024-11-11 20:50:26*
%MOMM*%
%LPD*%
G01*
G04 APERTURE LIST*
G04 Aperture macros list*
%AMRoundRect*
0 Rectangle with rounded corners*
0 $1 Rounding radius*
0 $2 $3 $4 $5 $6 $7 $8 $9 X,Y pos of 4 corners*
0 Add a 4 corners polygon primitive as box body*
4,1,4,$2,$3,$4,$5,$6,$7,$8,$9,$2,$3,0*
0 Add four circle primitives for the rounded corners*
1,1,$1+$1,$2,$3*
1,1,$1+$1,$4,$5*
1,1,$1+$1,$6,$7*
1,1,$1+$1,$8,$9*
0 Add four rect primitives between the rounded corners*
20,1,$1+$1,$2,$3,$4,$5,0*
20,1,$1+$1,$4,$5,$6,$7,0*
20,1,$1+$1,$6,$7,$8,$9,0*
20,1,$1+$1,$8,$9,$2,$3,0*%
G04 Aperture macros list end*
%TA.AperFunction,SMDPad,CuDef*%
%ADD10RoundRect,0.250000X-0.400000X-1.075000X0.400000X-1.075000X0.400000X1.075000X-0.400000X1.075000X0*%
%TD*%
%TA.AperFunction,ComponentPad*%
%ADD11C,2.500000*%
%TD*%
%TA.AperFunction,ComponentPad*%
%ADD12C,2.000000*%
%TD*%
%TA.AperFunction,ComponentPad*%
%ADD13C,3.000000*%
%TD*%
%TA.AperFunction,SMDPad,CuDef*%
%ADD14RoundRect,0.250000X-0.625000X0.400000X-0.625000X-0.400000X0.625000X-0.400000X0.625000X0.400000X0*%
%TD*%
%TA.AperFunction,ComponentPad*%
%ADD15R,3.000000X2.600000*%
%TD*%
%TA.AperFunction,ComponentPad*%
%ADD16R,2.600000X2.600000*%
%TD*%
%TA.AperFunction,SMDPad,CuDef*%
%ADD17RoundRect,0.200000X0.200000X-0.300000X0.200000X0.300000X-0.200000X0.300000X-0.200000X-0.300000X0*%
%TD*%
%TA.AperFunction,ComponentPad*%
%ADD18R,2.000000X1.600000*%
%TD*%
%TA.AperFunction,ComponentPad*%
%ADD19O,2.000000X1.600000*%
%TD*%
%TA.AperFunction,ComponentPad*%
%ADD20R,2.000000X1.905000*%
%TD*%
%TA.AperFunction,ComponentPad*%
%ADD21O,2.000000X1.905000*%
%TD*%
%TA.AperFunction,ViaPad*%
%ADD22C,0.800000*%
%TD*%
%TA.AperFunction,Conductor*%
%ADD23C,1.000000*%
%TD*%
%TA.AperFunction,Conductor*%
%ADD24C,0.500000*%
%TD*%
%TA.AperFunction,Conductor*%
%ADD25C,0.200000*%
%TD*%
%ADD26C,0.350000*%
G04 APERTURE END LIST*
D10*
%TO.P,R7,1*%
%TO.N,Net-(J1-Pin_1)*%
X133950000Y-82500000D03*
%TO.P,R7,2*%
%TO.N,Net-(D2-+)*%
X137050000Y-82500000D03*
%TD*%
%TO.P,R4,1*%
%TO.N,Net-(J1-Pin_1)*%
X133900000Y-94750000D03*
%TO.P,R4,2*%
%TO.N,Net-(D2--)*%
X137000000Y-94750000D03*
%TD*%
D11*
%TO.P,C1,1*%
%TO.N,Net-(D1-K)*%
X133000000Y-108000000D03*
D12*
%TO.P,C1,2*%
%TO.N,Net-(J1-Pin_3)*%
X143000000Y-108000000D03*
%TD*%
D13*
%TO.P,R3,1*%
%TO.N,Net-(J1-Pin_1)*%
X161380000Y-84000000D03*
%TO.P,R3,2*%
%TO.N,Net-(CSP1-Pad2)*%
X176620000Y-84000000D03*
%TD*%
D11*
%TO.P,VARISTOR1,1*%
%TO.N,Net-(J1-Pin_3)*%
X163800000Y-102750000D03*
%TO.P,VARISTOR1,2*%
%TO.N,Net-(J1-Pin_1)*%
X165200000Y-95250000D03*
%TD*%
%TO.P,MINIMO,1,1*%
%TO.N,Net-(J1-Pin_1)*%
X126500000Y-83000000D03*
%TO.P,MINIMO,2,2*%
%TO.N,Net-(MINIMO1-Pad2)*%
X121420000Y-85540000D03*
%TO.P,MINIMO,3,3*%
%TO.N,unconnected-(MINIMO1-Pad3)*%
X126500000Y-88080000D03*
%TD*%
D14*
%TO.P,R8,1*%
%TO.N,Net-(MINIMO1-Pad2)*%
X130000000Y-102950000D03*
%TO.P,R8,2*%
%TO.N,Net-(D1-K)*%
X130000000Y-106050000D03*
%TD*%
D15*
%TO.P,J1,1,Pin_1*%
%TO.N,Net-(J1-Pin_1)*%
X174000000Y-93000000D03*
%TO.P,J1,2,Pin_2*%
%TO.N,unconnected-(J1-Pin_2-Pad2)*%
X174000000Y-98000000D03*
D16*
%TO.P,J1,3,Pin_3*%
%TO.N,Net-(J1-Pin_3)*%
X174000000Y-103000000D03*
%TD*%
D11*
%TO.P,MAXIMO,1,1*%
%TO.N,Net-(J1-Pin_1)*%
X126655000Y-93460000D03*
%TO.P,MAXIMO,2,2*%
%TO.N,Net-(J2-Pin_1)*%
X121575000Y-96000000D03*
%TO.P,MAXIMO,3,3*%
%TO.N,unconnected-(MAXIMO1-Pad3)*%
X126655000Y-98540000D03*
%TD*%
D10*
%TO.P,R1,1*%
%TO.N,Net-(J1-Pin_1)*%
X133950000Y-101750000D03*
%TO.P,R1,2*%
%TO.N,Net-(D2--)*%
X137050000Y-101750000D03*
%TD*%
D11*
%TO.P,C2,1*%
%TO.N,Net-(D1-K)*%
X133000000Y-114500000D03*
D12*
%TO.P,C2,2*%
%TO.N,Net-(J1-Pin_3)*%
X143000000Y-114500000D03*
%TD*%
D10*
%TO.P,R2,1*%
%TO.N,Net-(J1-Pin_1)*%
X133950000Y-98250000D03*
%TO.P,R2,2*%
%TO.N,Net-(D2--)*%
X137050000Y-98250000D03*
%TD*%
D13*
%TO.P,CSP1,1*%
%TO.N,Net-(J1-Pin_3)*%
X158500000Y-111500000D03*
%TO.P,CSP1,2*%
%TO.N,Net-(CSP1-Pad2)*%
X173500000Y-111500000D03*
%TD*%
D17*
%TO.P,D2,1*%
%TO.N,Net-(D1-K)*%
X147500000Y-102900000D03*
%TO.P,D2,2*%
%TO.N,Net-(J1-Pin_3)*%
X150040000Y-102900000D03*
%TO.P,D2,3,+*%
%TO.N,Net-(D2-+)*%
X150040000Y-96750000D03*
%TO.P,D2,4,-*%
%TO.N,Net-(D2--)*%
X147500000Y-96750000D03*
%TD*%
D15*
%TO.P,J2,1,Pin_1*%
%TO.N,Net-(J2-Pin_1)*%
X123500000Y-105000000D03*
%TO.P,J2,2,Pin_2*%
%TO.N,Net-(D1-K)*%
X123500000Y-110000000D03*
%TO.P,J2,3,Pin_3*%
X123500000Y-115000000D03*
%TD*%
D10*
%TO.P,R6,1*%
%TO.N,Net-(J1-Pin_1)*%
X133950000Y-86000000D03*
%TO.P,R6,2*%
%TO.N,Net-(D2-+)*%
X137050000Y-86000000D03*
%TD*%
D18*
%TO.P,D1,1,K*%
%TO.N,Net-(D1-K)*%
X159190000Y-90250000D03*
D19*
%TO.P,D1,2,A*%
%TO.N,Net-(D1-A)*%
X166810000Y-90250000D03*
%TD*%
D10*
%TO.P,R5,1*%
%TO.N,Net-(J1-Pin_1)*%
X133900000Y-89500000D03*
%TO.P,R5,2*%
%TO.N,Net-(D2-+)*%
X137000000Y-89500000D03*
%TD*%
D20*
%TO.P,Q1,1,A1*%
%TO.N,Net-(J1-Pin_3)*%
X154250000Y-101580000D03*
D21*
%TO.P,Q1,2,A2*%
%TO.N,Net-(J1-Pin_1)*%
X154250000Y-99040000D03*
%TO.P,Q1,3,G*%
%TO.N,Net-(D1-A)*%
X154250000Y-96500000D03*
%TD*%
D22*
%TO.N,Net-(D2--)*%
X137300000Y-101800000D03*
X139700000Y-98100000D03*
X137200000Y-98100000D03*
X137300000Y-94700000D03*
X139700000Y-94600000D03*
X139700000Y-101700000D03*
%TO.N,Net-(D2-+)*%
X137700000Y-89900000D03*
X137600000Y-85800000D03*
X140300000Y-85800000D03*
X140200000Y-89900000D03*
X140300000Y-82000000D03*
X137600000Y-82000000D03*
%TO.N,Net-(J1-Pin_1)*%
X133900000Y-89500000D03*
X131600000Y-86100000D03*
X133700000Y-101800000D03*
X133800000Y-94600000D03*
X133900000Y-86100000D03*
X131600000Y-94100000D03*
X131600000Y-97800000D03*
X133800000Y-98200000D03*
X131500000Y-89700000D03*
X131500000Y-83000000D03*
X131700000Y-100000000D03*
X133900000Y-82900000D03*
%TD*%
D23*
%TO.N,Net-(J1-Pin_3)*%
X150040000Y-102900000D02*
X152930000Y-102900000D01*
X158500000Y-111500000D02*
X163800000Y-106200000D01*
X142000000Y-109000000D02*
X143000000Y-108000000D01*
X145500000Y-105500000D02*
X148500000Y-105500000D01*
X163800000Y-102750000D02*
X165750000Y-102750000D01*
X143000000Y-114500000D02*
X142000000Y-113500000D01*
X166000000Y-103000000D02*
X174000000Y-103000000D01*
X152930000Y-102900000D02*
X154250000Y-101580000D01*
X162630000Y-101580000D02*
X163800000Y-102750000D01*
X154250000Y-101580000D02*
X162630000Y-101580000D01*
X142000000Y-113500000D02*
X142000000Y-109000000D01*
X143000000Y-108000000D02*
X145500000Y-105500000D01*
X165750000Y-102750000D02*
X166000000Y-103000000D01*
X150040000Y-103960000D02*
X150040000Y-102900000D01*
X163800000Y-106200000D02*
X163800000Y-102750000D01*
X148500000Y-105500000D02*
X150040000Y-103960000D01*
%TO.N,Net-(D1-K)*%
X143350000Y-102900000D02*
X147500000Y-102900000D01*
X133000000Y-108000000D02*
X138250000Y-108000000D01*
D24*
X151500000Y-95000000D02*
X151500000Y-98500000D01*
D23*
X132500000Y-115000000D02*
X133000000Y-114500000D01*
X131050000Y-106050000D02*
X133000000Y-108000000D01*
X130000000Y-106050000D02*
X131050000Y-106050000D01*
X138250000Y-108000000D02*
X143350000Y-102900000D01*
D24*
X159190000Y-90250000D02*
X156250000Y-90250000D01*
D23*
X123500000Y-115000000D02*
X132500000Y-115000000D01*
D24*
X151500000Y-98500000D02*
X147500000Y-102500000D01*
D23*
X133000000Y-108000000D02*
X133000000Y-114500000D01*
D24*
X156250000Y-90250000D02*
X151500000Y-95000000D01*
X147500000Y-102500000D02*
X147500000Y-102900000D01*
D23*
%TO.N,Net-(CSP1-Pad2)*%
X176000000Y-111500000D02*
X179000000Y-108500000D01*
X179000000Y-108500000D02*
X179000000Y-86380000D01*
X179000000Y-86380000D02*
X176620000Y-84000000D01*
X173500000Y-111500000D02*
X176000000Y-111500000D01*
%TO.N,Net-(D1-A)*%
X158500000Y-96500000D02*
X164750000Y-90250000D01*
X154250000Y-96500000D02*
X158500000Y-96500000D01*
X164750000Y-90250000D02*
X166810000Y-90250000D01*
%TO.N,Net-(D2--)*%
X137550000Y-96750000D02*
X137050000Y-96250000D01*
X147500000Y-96750000D02*
X137550000Y-96750000D01*
X137050000Y-94800000D02*
X137000000Y-94750000D01*
X137050000Y-96250000D02*
X137050000Y-94800000D01*
X137050000Y-101750000D02*
X137050000Y-96250000D01*
%TO.N,Net-(D2-+)*%
X145250000Y-94750000D02*
X140000000Y-89500000D01*
X137050000Y-82500000D02*
X137050000Y-89450000D01*
X150040000Y-96040000D02*
X148750000Y-94750000D01*
X148750000Y-94750000D02*
X145250000Y-94750000D01*
X137050000Y-89450000D02*
X137000000Y-89500000D01*
X140000000Y-89500000D02*
X137000000Y-89500000D01*
X150040000Y-96750000D02*
X150040000Y-96040000D01*
%TO.N,Net-(J1-Pin_1)*%
X131700000Y-94750000D02*
X128500000Y-94750000D01*
X166500000Y-84000000D02*
X174000000Y-91500000D01*
X161410000Y-99040000D02*
X165200000Y-95250000D01*
D25*
X133450000Y-83000000D02*
X133950000Y-82500000D01*
D23*
X128500000Y-94750000D02*
X127210000Y-93460000D01*
X133900000Y-94750000D02*
X131700000Y-94750000D01*
X131500000Y-83000000D02*
X133450000Y-83000000D01*
X154250000Y-99040000D02*
X161410000Y-99040000D01*
X174000000Y-91500000D02*
X174000000Y-93000000D01*
X133950000Y-101750000D02*
X133950000Y-82500000D01*
X161380000Y-84000000D02*
X166500000Y-84000000D01*
D25*
X127210000Y-93460000D02*
X126655000Y-93460000D01*
D23*
X126500000Y-83000000D02*
X131500000Y-83000000D01*
%TO.N,Net-(J2-Pin_1)*%
X121575000Y-103075000D02*
X121575000Y-96000000D01*
X123500000Y-105000000D02*
X121575000Y-103075000D01*
D24*
%TO.N,Net-(MINIMO1-Pad2)*%
X130000000Y-102950000D02*
X126450000Y-102950000D01*
X121420000Y-92420000D02*
X121420000Y-85540000D01*
X124000000Y-95000000D02*
X121420000Y-92420000D01*
%TD*%
%TA.AperFunction,Conductor*%
%TO.N,Net-(D1-K)*%
G36*
X160123542Y-88419685D02*
G01*
X160133965Y-88427172D01*
X160553462Y-88762770D01*
X160593514Y-88820019D01*
X160600000Y-88859597D01*
X160600000Y-90948638D01*
X160580315Y-91015677D01*
X160563681Y-91036319D01*
X160036319Y-91563681D01*
X159974996Y-91597166D01*
X159948638Y-91600000D01*
X155399999Y-91600000D01*
X151900000Y-95099999D01*
X151900000Y-98448638D01*
X151880315Y-98515677D01*
X151863681Y-98536319D01*
X148000000Y-102399999D01*
X148000000Y-103148638D01*
X147980315Y-103215677D01*
X147963681Y-103236319D01*
X147836319Y-103363681D01*
X147774996Y-103397166D01*
X147748638Y-103400000D01*
X147089374Y-103400000D01*
X147022335Y-103380315D01*
X146976580Y-103327511D01*
X146971737Y-103315212D01*
X146824839Y-102874519D01*
X146822315Y-102804698D01*
X146856763Y-102745704D01*
X151400000Y-98400000D01*
X151400000Y-95050248D01*
X151419685Y-94983209D01*
X151434976Y-94963930D01*
X157763464Y-88437678D01*
X157824265Y-88403254D01*
X157852484Y-88400000D01*
X160056503Y-88400000D01*
X160123542Y-88419685D01*
G37*
%TD.AperFunction*%
%TD*%
%TA.AperFunction,Conductor*%
%TO.N,Net-(D2--)*%
G36*
X140015677Y-93019685D02*
G01*
X140036319Y-93036319D01*
X143463681Y-96463681D01*
X143497166Y-96525004D01*
X143500000Y-96551362D01*
X143500000Y-96948638D01*
X143480315Y-97015677D01*
X143463681Y-97036319D01*
X142000000Y-98499999D01*
X142000000Y-101948638D01*
X141980315Y-102015677D01*
X141963681Y-102036319D01*
X140536319Y-103463681D01*
X140474996Y-103497166D01*
X140448638Y-103500000D01*
X136551362Y-103500000D01*
X136484323Y-103480315D01*
X136463681Y-103463681D01*
X136036319Y-103036319D01*
X136002834Y-102974996D01*
X136000000Y-102948638D01*
X136000000Y-93551362D01*
X136019685Y-93484323D01*
X136036319Y-93463681D01*
X136463681Y-93036319D01*
X136525004Y-93002834D01*
X136551362Y-93000000D01*
X139948638Y-93000000D01*
X140015677Y-93019685D01*
G37*
%TD.AperFunction*%
%TD*%
%TA.AperFunction,Conductor*%
%TO.N,Net-(J1-Pin_1)*%
G36*
X134516177Y-80520185D02*
G01*
X134536819Y-80536819D01*
X134713681Y-80713681D01*
X134747166Y-80775004D01*
X134750000Y-80801362D01*
X134750000Y-102948638D01*
X134730315Y-103015677D01*
X134713681Y-103036319D01*
X134536319Y-103213681D01*
X134474996Y-103247166D01*
X134448638Y-103250000D01*
X133548693Y-103250000D01*
X133481654Y-103230315D01*
X133464317Y-103216866D01*
X130039624Y-100036793D01*
X130003892Y-99976752D01*
X130000000Y-99945927D01*
X130000000Y-95500000D01*
X129536319Y-95036319D01*
X129502834Y-94974996D01*
X129500000Y-94948638D01*
X129500000Y-94551362D01*
X129519685Y-94484323D01*
X129536319Y-94463681D01*
X130000000Y-94000000D01*
X130000000Y-83750000D01*
X129536319Y-83286319D01*
X129502834Y-83224996D01*
X129500000Y-83198638D01*
X129500000Y-82826636D01*
X129519685Y-82759597D01*
X129568546Y-82715727D01*
X130499998Y-82250001D01*
X130500000Y-82250000D01*
X130500000Y-80801362D01*
X130519685Y-80734323D01*
X130536319Y-80713681D01*
X130713181Y-80536819D01*
X130774504Y-80503334D01*
X130800862Y-80500500D01*
X134449138Y-80500500D01*
X134516177Y-80520185D01*
G37*
%TD.AperFunction*%
%TD*%
%TA.AperFunction,Conductor*%
%TO.N,Net-(D1-A)*%
G36*
X167315677Y-88819685D02*
G01*
X167336319Y-88836319D01*
X167963681Y-89463681D01*
X167997166Y-89525004D01*
X168000000Y-89551362D01*
X168000000Y-91248638D01*
X167980315Y-91315677D01*
X167963681Y-91336319D01*
X167736319Y-91563681D01*
X167674996Y-91597166D01*
X167648638Y-91600000D01*
X164899999Y-91600000D01*
X159136319Y-97363681D01*
X159074996Y-97397166D01*
X159048638Y-97400000D01*
X153351362Y-97400000D01*
X153284323Y-97380315D01*
X153263681Y-97363681D01*
X152936319Y-97036319D01*
X152902834Y-96974996D01*
X152900000Y-96948638D01*
X152900000Y-95951362D01*
X152919685Y-95884323D01*
X152936319Y-95863681D01*
X153663681Y-95136319D01*
X153725004Y-95102834D01*
X153751362Y-95100000D01*
X158999999Y-95100000D01*
X159000000Y-95100000D01*
X165363803Y-88835630D01*
X165425388Y-88802630D01*
X165450791Y-88800000D01*
X167248638Y-88800000D01*
X167315677Y-88819685D01*
G37*
%TD.AperFunction*%
%TD*%
%TA.AperFunction,Conductor*%
%TO.N,Net-(MINIMO1-Pad2)*%
G36*
X122015677Y-84019685D02*
G01*
X122036319Y-84036319D01*
X122963681Y-84963681D01*
X122997166Y-85025004D01*
X123000000Y-85051362D01*
X123000000Y-93000000D01*
X124463681Y-94463681D01*
X124497166Y-94525004D01*
X124500000Y-94551362D01*
X124500000Y-97500000D01*
X124500000Y-100500000D01*
X126000000Y-102000000D01*
X130448638Y-102000000D01*
X130515677Y-102019685D01*
X130536319Y-102036319D01*
X130963681Y-102463681D01*
X130997166Y-102525004D01*
X131000000Y-102551362D01*
X131000000Y-102948638D01*
X130980315Y-103015677D01*
X130963681Y-103036319D01*
X130536319Y-103463681D01*
X130474996Y-103497166D01*
X130448638Y-103500000D01*
X126551362Y-103500000D01*
X126484323Y-103480315D01*
X126463681Y-103463681D01*
X124036319Y-101036319D01*
X124002834Y-100974996D01*
X124000000Y-100948638D01*
X124000000Y-95500000D01*
X119536319Y-91036319D01*
X119502834Y-90974996D01*
X119500000Y-90948638D01*
X119500000Y-84551362D01*
X119519685Y-84484323D01*
X119536319Y-84463681D01*
X119963681Y-84036319D01*
X120025004Y-84002834D01*
X120051362Y-84000000D01*
X121948638Y-84000000D01*
X122015677Y-84019685D01*
G37*
%TD.AperFunction*%
%TD*%
%TA.AperFunction,Conductor*%
%TO.N,Net-(D2-+)*%
G36*
X141516177Y-80520185D02*
G01*
X141536819Y-80536819D01*
X141963681Y-80963681D01*
X141997166Y-81025004D01*
X142000000Y-81051362D01*
X142000000Y-90948638D01*
X141980315Y-91015677D01*
X141963681Y-91036319D01*
X141536319Y-91463681D01*
X141474996Y-91497166D01*
X141448638Y-91500000D01*
X137051362Y-91500000D01*
X136984323Y-91480315D01*
X136963681Y-91463681D01*
X136536319Y-91036319D01*
X136502834Y-90974996D01*
X136500000Y-90948638D01*
X136500000Y-80624500D01*
X136519685Y-80557461D01*
X136572489Y-80511706D01*
X136624000Y-80500500D01*
X141449138Y-80500500D01*
X141516177Y-80520185D01*
G37*
%TD.AperFunction*%
%TD*%
%TA.AperFunction,Conductor*%
%TO.N,Net-(J1-Pin_3)*%
G36*
X155415677Y-100619685D02*
G01*
X155436319Y-100636319D01*
X155800000Y-101000000D01*
X152700000Y-101000000D01*
X150641176Y-106000000D01*
X146100000Y-106000000D01*
X146099999Y-106000000D01*
X142600000Y-109499999D01*
X142600000Y-112900000D01*
X143863681Y-114163681D01*
X143897166Y-114225004D01*
X143900000Y-114251362D01*
X143900000Y-115348638D01*
X143880315Y-115415677D01*
X143863681Y-115436319D01*
X143736319Y-115563681D01*
X143674996Y-115597166D01*
X143648638Y-115600000D01*
X141951362Y-115600000D01*
X141884323Y-115580315D01*
X141863681Y-115563681D01*
X141336319Y-115036319D01*
X141302834Y-114974996D01*
X141300000Y-114948638D01*
X141300000Y-108051362D01*
X141319685Y-107984323D01*
X141336319Y-107963681D01*
X144363681Y-104936319D01*
X144425004Y-104902834D01*
X144451362Y-104900000D01*
X148400000Y-104900000D01*
X149400000Y-103900000D01*
X149400000Y-102551362D01*
X149419685Y-102484323D01*
X149436319Y-102463681D01*
X151263681Y-100636319D01*
X151325004Y-100602834D01*
X151351362Y-100600000D01*
X155348638Y-100600000D01*
X155415677Y-100619685D01*
G37*
%TD.AperFunction*%
%TD*%
%TA.AperFunction,Conductor*%
%TO.N,Net-(D1-K)*%
G36*
X141267677Y-105519685D02*
G01*
X141313432Y-105572489D01*
X141323376Y-105641647D01*
X141294351Y-105705203D01*
X141288319Y-105711681D01*
X135500000Y-111499999D01*
X135500000Y-116448638D01*
X135480315Y-116515677D01*
X135463681Y-116536319D01*
X134536819Y-117463181D01*
X134475496Y-117496666D01*
X134449138Y-117499500D01*
X121550862Y-117499500D01*
X121483823Y-117479815D01*
X121463181Y-117463181D01*
X121036319Y-117036319D01*
X121002834Y-116974996D01*
X121000000Y-116948638D01*
X121000000Y-109051362D01*
X121019685Y-108984323D01*
X121036319Y-108963681D01*
X121963681Y-108036319D01*
X122025004Y-108002834D01*
X122051362Y-108000000D01*
X127000000Y-108000000D01*
X129463681Y-105536319D01*
X129525004Y-105502834D01*
X129551362Y-105500000D01*
X141200638Y-105500000D01*
X141267677Y-105519685D01*
G37*
%TD.AperFunction*%
%TD*%
%TA.AperFunction,Conductor*%
%TO.N,Net-(J1-Pin_1)*%
G36*
X166515094Y-81519685D02*
G01*
X166536435Y-81537023D01*
X172699539Y-87799532D01*
X172699996Y-87800002D01*
X171200000Y-88800000D01*
X168400000Y-85900000D01*
X168399999Y-85900000D01*
X159951362Y-85900000D01*
X159884323Y-85880315D01*
X159863681Y-85863681D01*
X158636319Y-84636319D01*
X158602834Y-84574996D01*
X158600000Y-84548638D01*
X158600000Y-82063813D01*
X158619685Y-81996774D01*
X158651926Y-81962910D01*
X159267664Y-81523097D01*
X159333658Y-81500149D01*
X159339738Y-81500000D01*
X166448055Y-81500000D01*
X166515094Y-81519685D01*
G37*
%TD.AperFunction*%
%TD*%
%TA.AperFunction,Conductor*%
%TO.N,Net-(J1-Pin_1)*%
G36*
X171200000Y-88800000D02*
G01*
X172699996Y-87800002D01*
X172700420Y-87800436D01*
X175365261Y-90563974D01*
X175397625Y-90625896D01*
X175400000Y-90650047D01*
X175400000Y-94148638D01*
X175380315Y-94215677D01*
X175363681Y-94236319D01*
X174536319Y-95063681D01*
X174474996Y-95097166D01*
X174448638Y-95100000D01*
X172199999Y-95100000D01*
X167336319Y-99963681D01*
X167274996Y-99997166D01*
X167248638Y-100000000D01*
X163400000Y-100000000D01*
X154600000Y-100000000D01*
X153351362Y-100000000D01*
X153284323Y-99980315D01*
X153263681Y-99963681D01*
X152936319Y-99636319D01*
X152902834Y-99574996D01*
X152900000Y-99548638D01*
X152900000Y-98451362D01*
X152919685Y-98384323D01*
X152936319Y-98363681D01*
X153163681Y-98136319D01*
X153225004Y-98102834D01*
X153251362Y-98100000D01*
X160600000Y-98100000D01*
X165763998Y-93134616D01*
X165825965Y-93102340D01*
X165849943Y-93100000D01*
X169700000Y-93100000D01*
X170200000Y-92400000D01*
X170200000Y-87906458D01*
X170209859Y-87858003D01*
X170234482Y-87800000D01*
X170234483Y-87800000D01*
X171200000Y-88800000D01*
G37*
%TD.AperFunction*%
%TD*%
%TA.AperFunction,Conductor*%
%TO.N,Net-(J1-Pin_3)*%
G36*
X174912185Y-101019685D02*
G01*
X174936899Y-101040589D01*
X175867753Y-102064528D01*
X175898283Y-102127374D01*
X175900000Y-102147939D01*
X175900000Y-104444775D01*
X175880315Y-104511814D01*
X175858952Y-104536943D01*
X174935369Y-105368168D01*
X174872370Y-105398384D01*
X174852417Y-105400000D01*
X168999999Y-105400000D01*
X161136319Y-113263681D01*
X161074996Y-113297166D01*
X161048638Y-113300000D01*
X157800000Y-113300000D01*
X156351362Y-113300000D01*
X156284323Y-113280315D01*
X156263681Y-113263681D01*
X155036319Y-112036319D01*
X155002834Y-111974996D01*
X155000000Y-111948638D01*
X155000000Y-108000000D01*
X153100000Y-106100000D01*
X150774341Y-106100000D01*
X150707302Y-106080315D01*
X150671311Y-106044998D01*
X150641176Y-106000000D01*
X152700000Y-101000000D01*
X155800000Y-101000000D01*
X174845146Y-101000000D01*
X174912185Y-101019685D01*
G37*
%TD.AperFunction*%
%TD*%
%TA.AperFunction,Conductor*%
%TO.N,Net-(CSP1-Pad2)*%
G36*
X178615677Y-81619685D02*
G01*
X178636319Y-81636319D01*
X179963681Y-82963681D01*
X179997166Y-83025004D01*
X180000000Y-83051362D01*
X180000000Y-111948638D01*
X179980315Y-112015677D01*
X179963681Y-112036319D01*
X177736319Y-114263681D01*
X177674996Y-114297166D01*
X177648638Y-114300000D01*
X171951362Y-114300000D01*
X171884323Y-114280315D01*
X171863681Y-114263681D01*
X170336319Y-112736319D01*
X170302834Y-112674996D01*
X170300000Y-112648638D01*
X170300000Y-110351362D01*
X170319685Y-110284323D01*
X170336319Y-110263681D01*
X171563681Y-109036319D01*
X171625004Y-109002834D01*
X171651362Y-109000000D01*
X176200000Y-109000000D01*
X177900000Y-107300000D01*
X177900000Y-89200000D01*
X177900000Y-89199999D01*
X173935243Y-85136124D01*
X173902518Y-85074392D01*
X173900000Y-85049532D01*
X173900000Y-82441333D01*
X173919685Y-82374294D01*
X173924800Y-82366933D01*
X174462800Y-81649600D01*
X174518771Y-81607779D01*
X174562000Y-81600000D01*
X178548638Y-81600000D01*
X178615677Y-81619685D01*
G37*
%TD.AperFunction*%
%TD*%
%TA.AperFunction,Conductor*%
%TO.N,Net-(J2-Pin_1)*%
G36*
X122015677Y-95019685D02*
G01*
X122036319Y-95036319D01*
X122463681Y-95463681D01*
X122497166Y-95525004D01*
X122500000Y-95551362D01*
X122500000Y-101000000D01*
X125463681Y-103963681D01*
X125497166Y-104025004D01*
X125500000Y-104051362D01*
X125500000Y-106448638D01*
X125480315Y-106515677D01*
X125463681Y-106536319D01*
X125036319Y-106963681D01*
X124974996Y-106997166D01*
X124948638Y-107000000D01*
X122051362Y-107000000D01*
X121984323Y-106980315D01*
X121963681Y-106963681D01*
X120536319Y-105536319D01*
X120502834Y-105474996D01*
X120500000Y-105448638D01*
X120500000Y-95551362D01*
X120519685Y-95484323D01*
X120536319Y-95463681D01*
X120963681Y-95036319D01*
X121025004Y-95002834D01*
X121051362Y-95000000D01*
X121948638Y-95000000D01*
X122015677Y-95019685D01*
G37*
%TD.AperFunction*%
%TD*%
D26*
X137300000Y-101800000D03*
X139700000Y-98100000D03*
X137200000Y-98100000D03*
X137300000Y-94700000D03*
X139700000Y-94600000D03*
X139700000Y-101700000D03*
X137700000Y-89900000D03*
X137600000Y-85800000D03*
X140300000Y-85800000D03*
X140200000Y-89900000D03*
X140300000Y-82000000D03*
X137600000Y-82000000D03*
X133900000Y-89500000D03*
X131600000Y-86100000D03*
X133700000Y-101800000D03*
X133800000Y-94600000D03*
X133900000Y-86100000D03*
X131600000Y-94100000D03*
X131600000Y-97800000D03*
X133800000Y-98200000D03*
X131500000Y-89700000D03*
X131500000Y-83000000D03*
X131700000Y-100000000D03*
X133900000Y-82900000D03*
X133000000Y-108000000D03*
X143000000Y-108000000D03*
X161380000Y-84000000D03*
X176620000Y-84000000D03*
X163800000Y-102750000D03*
X165200000Y-95250000D03*
X126500000Y-83000000D03*
X121420000Y-85540000D03*
X126500000Y-88080000D03*
X174000000Y-93000000D03*
X174000000Y-98000000D03*
X174000000Y-103000000D03*
X126655000Y-93460000D03*
X121575000Y-96000000D03*
X126655000Y-98540000D03*
X149000000Y-111500000D03*
X133000000Y-114500000D03*
X143000000Y-114500000D03*
X158500000Y-111500000D03*
X173500000Y-111500000D03*
X123500000Y-105000000D03*
X123500000Y-110000000D03*
X123500000Y-115000000D03*
X159190000Y-90250000D03*
X166810000Y-90250000D03*
X149000000Y-88000000D03*
X154250000Y-101580000D03*
X154250000Y-99040000D03*
X154250000Y-96500000D03*
M02*
