%TF.GenerationSoftware,KiCad,Pcbnew,8.0.5*%
%TF.CreationDate,2024-11-11T20:50:25-03:00*%
%TF.ProjectId,Dimmer  PHD Equipamentos,44696d6d-6572-4202-9050-484420457175,rev?*%
%TF.SameCoordinates,Original*%
%TF.FileFunction,Legend,Bot*%
%TF.FilePolarity,Positive*%
%FSLAX46Y46*%
G04 Gerber Fmt 4.6, Leading zero omitted, Abs format (unit mm)*
G04 Created by KiCad (PCBNEW 8.0.5) date 2024-11-11 20:50:25*
%MOMM*%
%LPD*%
G01*
G04 APERTURE LIST*
%ADD10C,0.150000*%
%ADD11C,0.120000*%
%ADD12C,0.350000*%
G04 APERTURE END LIST*
D10*
X159070057Y-98944761D02*
X159022438Y-98849523D01*
X159022438Y-98849523D02*
X158927200Y-98754285D01*
X158927200Y-98754285D02*
X158784342Y-98611428D01*
X158784342Y-98611428D02*
X158736723Y-98516190D01*
X158736723Y-98516190D02*
X158736723Y-98420952D01*
X158974819Y-98468571D02*
X158927200Y-98373333D01*
X158927200Y-98373333D02*
X158831961Y-98278095D01*
X158831961Y-98278095D02*
X158641485Y-98230476D01*
X158641485Y-98230476D02*
X158308152Y-98230476D01*
X158308152Y-98230476D02*
X158117676Y-98278095D01*
X158117676Y-98278095D02*
X158022438Y-98373333D01*
X158022438Y-98373333D02*
X157974819Y-98468571D01*
X157974819Y-98468571D02*
X157974819Y-98659047D01*
X157974819Y-98659047D02*
X158022438Y-98754285D01*
X158022438Y-98754285D02*
X158117676Y-98849523D01*
X158117676Y-98849523D02*
X158308152Y-98897142D01*
X158308152Y-98897142D02*
X158641485Y-98897142D01*
X158641485Y-98897142D02*
X158831961Y-98849523D01*
X158831961Y-98849523D02*
X158927200Y-98754285D01*
X158927200Y-98754285D02*
X158974819Y-98659047D01*
X158974819Y-98659047D02*
X158974819Y-98468571D01*
X158974819Y-99849523D02*
X158974819Y-99278095D01*
X158974819Y-99563809D02*
X157974819Y-99563809D01*
X157974819Y-99563809D02*
X158117676Y-99468571D01*
X158117676Y-99468571D02*
X158212914Y-99373333D01*
X158212914Y-99373333D02*
X158260533Y-99278095D01*
D11*
%TO.C,Q1*%
X152879000Y-93920000D02*
X152879000Y-104160000D01*
X152879000Y-93920000D02*
X157520000Y-93920000D01*
X152879000Y-104160000D02*
X157520000Y-104160000D01*
X156010000Y-93920000D02*
X156010000Y-104160000D01*
X156010000Y-97189000D02*
X157520000Y-97189000D01*
X156010000Y-100890000D02*
X157520000Y-100890000D01*
X157520000Y-93920000D02*
X157520000Y-104160000D01*
%TD*%
D12*
X133000000Y-108000000D03*
X143000000Y-108000000D03*
X161380000Y-84000000D03*
X176620000Y-84000000D03*
X163800000Y-102750000D03*
X165200000Y-95250000D03*
X126500000Y-83000000D03*
X121420000Y-85540000D03*
X126500000Y-88080000D03*
X174000000Y-93000000D03*
X174000000Y-98000000D03*
X174000000Y-103000000D03*
X126655000Y-93460000D03*
X121575000Y-96000000D03*
X126655000Y-98540000D03*
X149000000Y-111500000D03*
X133000000Y-114500000D03*
X143000000Y-114500000D03*
X158500000Y-111500000D03*
X173500000Y-111500000D03*
X123500000Y-105000000D03*
X123500000Y-110000000D03*
X123500000Y-115000000D03*
X159190000Y-90250000D03*
X166810000Y-90250000D03*
X149000000Y-88000000D03*
X154250000Y-101580000D03*
X154250000Y-99040000D03*
X154250000Y-96500000D03*
M02*
